<?xml version="1.0" encoding="utf-8"?>
<!-- Generator: Adobe Illustrator 15.0.0, SVG Export Plug-In . SVG Version: 6.00 Build 0)  -->
<!DOCTYPE svg PUBLIC "-//W3C//DTD SVG 1.1//EN" "http://www.w3.org/Graphics/SVG/1.1/DTD/svg11.dtd">
<svg version="1.1" id="Layer_1" xmlns="http://www.w3.org/2000/svg" xmlns:xlink="http://www.w3.org/1999/xlink" x="0px" y="0px"
	 width="792px" height="612px" viewBox="0 0 792 612" enable-background="new 0 0 792 612" xml:space="preserve">
<path fill="#FFFFFF" d="M501.288,285.455c-7.417,1.266-18.173-0.051-23.872-2.422c11.844-0.98,19.862-6.363,22.95-13.67
	c-4.267,2.628-17.525,5.489-24.836,2.763c-0.365-1.721-0.761-3.356-1.163-4.837c-5.568-20.494-24.666-37.008-44.662-35.012
	c1.611-0.654,3.248-1.262,4.9-1.816c2.189-0.789,15.113-2.896,13.082-7.453c-1.723-4.02-17.51,3.021-20.48,3.947
	c3.924-1.471,10.414-4.008,11.105-8.525c-6.01,0.824-11.91,3.67-16.469,7.807c1.648-1.771,2.896-3.932,3.16-6.26
	c-16.036,10.258-25.404,30.92-32.979,50.98c-5.95-5.779-11.239-10.326-15.965-12.859c-13.273-7.115-29.15-14.551-54.063-23.814
	c-0.766,8.251,4.075,19.231,18.015,26.521c-3.018-0.408-8.541,0.506-12.951,1.555c1.796,9.462,7.673,17.25,23.594,21.012
	c-7.274,0.479-11.04,2.146-14.443,5.708c3.312,6.578,11.407,14.314,25.94,12.723c-16.175,6.981-6.596,19.905,6.568,17.976
	c-22.443,23.216-57.837,21.495-78.161,2.093c53.057,72.375,168.405,42.796,185.585-26.913
	C489.033,295.062,496.594,290.496,501.288,285.455z"/>
</svg>
